<svg width="16" height="16" viewBox="0 0 16 16" fill="none" xmlns="http://www.w3.org/2000/svg">
<g clip-path="url(#clip0_434:88)">
<path d="M6.58254 7.51988C6.91457 7.35287 7.16559 7.16685 7.3376 6.96584C7.64363 6.60381 7.79464 6.12377 7.79464 5.52872C7.79464 4.94967 7.64363 4.45463 7.3416 4.0396C6.83756 3.36354 5.98449 3.01751 4.77839 2.99951H0V12.7533H4.45537C4.95741 12.7533 5.42245 12.7103 5.85248 12.6223C6.28252 12.5333 6.65455 12.3703 6.96957 12.1323C7.2496 11.9252 7.48361 11.6682 7.66963 11.3652C7.96365 10.9072 8.11067 10.3881 8.11067 9.81007C8.11067 9.25002 7.98166 8.77299 7.72563 8.38095C7.46661 7.98892 7.08658 7.7019 6.58254 7.51988ZM1.97116 4.69365H4.12334C4.59638 4.69365 4.98641 4.74466 5.29243 4.84566C5.64646 4.99268 5.82348 5.2917 5.82348 5.74774C5.82348 6.15677 5.68847 6.44279 5.42145 6.60381C5.15242 6.76482 4.80339 6.84583 4.37536 6.84583H1.97116V4.69365ZM5.37444 10.8892C5.13642 11.0042 4.80139 11.0612 4.37236 11.0612H1.97116V8.45996H4.40536C4.8294 8.46296 5.15942 8.51896 5.39544 8.62397C5.81548 8.81399 6.0245 9.16202 6.0245 9.67106C6.0245 10.2711 5.80848 10.6751 5.37444 10.8892Z" fill="#EEEEEE"/>
<path d="M14.4622 3.45459H10.2249V4.66869H14.4622V3.45459Z" fill="#EEEEEE"/>
<path d="M15.9342 8.24585C15.8462 7.68081 15.6521 7.18377 15.3501 6.75473C15.0191 6.26869 14.5991 5.91266 14.088 5.68764C13.579 5.46162 13.0059 5.34862 12.3679 5.34962C11.2968 5.34962 10.4267 5.68464 9.75366 6.3497C9.08261 7.01675 8.74658 7.97583 8.74658 9.22593C8.74658 10.559 9.11761 11.5221 9.86367 12.1132C10.6067 12.7052 11.4648 13.0002 12.4389 13.0002C13.618 13.0002 14.5351 12.6492 15.1901 11.9492C15.6091 11.5071 15.8462 11.0721 15.8982 10.645H13.946C13.833 10.8561 13.702 11.0211 13.552 11.1411C13.28 11.3611 12.9259 11.4711 12.4919 11.4711C12.0789 11.4711 11.7288 11.3801 11.4368 11.1991C10.9548 10.9091 10.7027 10.401 10.6707 9.67797H15.9982C16.0062 9.05492 15.9862 8.57588 15.9342 8.24585ZM10.7187 8.43287C10.7887 7.96383 10.9588 7.5918 11.2288 7.31678C11.4988 7.04275 11.8808 6.90474 12.3699 6.90374C12.8209 6.90374 13.1979 7.03275 13.505 7.29177C13.808 7.5528 13.979 7.93183 14.014 8.43287H10.7187Z" fill="#EEEEEE"/>
</g>
<defs>
<clipPath id="clip0_434:88">
<rect width="16" height="16" fill="white"/>
</clipPath>
</defs>
</svg>
